<?xml version="1.0" encoding="UTF-8"?>
<svg version="1.1" viewBox="0 0 2000 2000" width="1280" height="1280" xmlns="http://www.w3.org/2000/svg">
<path transform="translate(730,810)" d="m0 0h19l14 4 12 7 11 11 7 14 4 20 3 18 1 3 17 2 15 1 54 2h35l5-2 1-2-1-12-4-17-1-10 3-10 4-6 8-5 8-2 21-1h30l10 2 8 5 6 7 8 16 11 27 12 30 10 24 3 4v2l4 2 7 1 6-5 7-14 6-21 8-26 14-37 7-11 6-4 11-2h30l17 1 14 3 6 4 6 7 2 12-2 12-8 21v9l5 4h10l19-8 15-3h17l16 3 25 9 19 5 8-1 13-8 3-2 6-1h71l7-1h26l24 3h17l22-5 8-1h30l12 2 19 8 19 9 16 2 17-3 20-8 14-6 17-4 9-1h15l18 3 16 6 13 7 14 10 7 6 9 12 8 16 6 20 3 25v9l-3 17-2 8v8l2 9v19l-6 11-11 12-14 10-17 10-15 6-15 4-14 2h-17l-20-3-18-6-19-10-16-6-10-1-12 5-21 12-16 6-16 3h-31l-20-4-13-5-15-8-11-8-6-5-8-10-5-6-7 1-7 7-6 11-8 11-7 7-9 4-4 1h-43l-10-3-10-7-4-1h-10l-28 9-20 4-9 1h-28l-15-3-16-6-15-9-9-7-5-4-7-8-8-11-18-30v-2l-7-1-5 7-9 20-12 25-9 14-7 7-12 4-12 2h-20l-16-4-10-7-7-9-13-24-10-21-9-30-11-29-6-18-3-5-4-2-9-1-9 3-2 2v18l4 16 7 18 4 6 9 10 6 8 3 9-2 12-11 33-6 8-4 3-9 2-9 1-51 1h-273l-29 2-30 1-26-1-2 10v11l1 6v16l-5 10-21 21-9 11-8 7-9 4h-8l-18-6-18-8-16-9-19-13-11-9-13-12-11-11-14-16-10-7-18-6-24-7-14-8-15-10-14-11-9-9-9-11-9-14-8-17-7-24-2-10-1-12v-27l2-17 5-20 7-19 10-18 9-11 8-9 8-7 15-11 18-11 24-10 15-5 17-3h36l23 4 23 7 17 8 17 12 14 12 10 10 9 11 9 7 15 5 14 3h18l13-4h7l8 5 7 8 4 8 2 10 1 22 10 5v2l3 1 4 6 1 7 8 4h11l1-9-3-19-5-18v-3l-7-1-5-5 2-5 6-8 9-6 10-1 9 1h17l18-4 3-2 4-31 4-14 6-12 9-10 16-8zm-362 105-20 3-6 3-4 5-1 2v10l2 2 15 3 5 5 3 5 1 11 2 3 11-1 10-4 6-5 3-7 1-6v-10l-2-10-4-5-8-3-6-1z" fill="#0B0E23"/>
<path transform="translate(362,837)" d="m0 0 20 1 20 3 22 8 16 10 9 7 13 12 11 14 9 16 5 12 6 25 1 6v20l-5 26-4 13-6 14-10 15-8 10-7 8-15 11-11 7-13 6-7 2 5 10 14 15 15 12 15 9 17 8 20 7 9 2-1 4-20 20-7 8-5 5-7-3-14-5-22-10-19-12-10-8-10-9-10-10-8-10-7-11-6-10-1-3h-11l-23-3-20-7-10-5-12-8-10-8-12-12-10-14-8-14-9-27-2-18v-16l2-20 9-27 10-18 9-12 14-14 13-10 14-8 14-6 13-4 20-3zm6 78-20 3-6 3-4 5-1 2v10l2 2 15 3 5 5 3 5 1 11 2 3 11-1 10-4 6-5 3-7 1-6v-10l-2-10-4-5-8-3-6-1z" fill="#FEFEFE"/>
<path transform="translate(945,847)" d="m0 0h56l8 21 40 100 8 19 9 22 1 1 14-30 11-26 12-27 13-29 15-36 5-13 2-2h53l-1 5-6 12-11 25-14 31-12 27-15 33-27 60-13 30-6 13-3 3h-41l-7-15-11-28-20-48-14-34-12-30-15-36-13-32z" fill="#578678"/>
<path transform="translate(1246,911)" d="m0 0h27l12 3 16 7 9 7 10 10 9 14 4 11 4 17v18l-2 5-8 2-39 5-31 2-24 1h-15l6 17 8 9v2l5 2 10 6 12 2h15l11-2 16-8 12-9 5 1 11 12 6 9-5 5-8 7-9 7-14 8-15 6-10 2h-31l-13-3-17-7-12-8-10-9-9-12-7-14-5-17-1-5v-25l4-15 6-16 7-11 9-11 12-10 14-8 19-6z" fill="#FEFEFE"/>
<path transform="translate(1702,911)" d="m0 0h29l12 3 16 8 12 9 8 9 7 12 5 13 2 10v26l-2 2-31 5-30 3-47 2h-8l4 12 9 13 7 6 9 5 12 2h14l14-3 14-7 10-8h2v-2l4 1 11 13 6 8-1 3-11 9-12 9-16 9-15 5-6 1h-31l-12-3-15-6-11-7-12-11-9-11-8-16-3-9-2-14v-22l3-17 4-9 7-14 8-10 12-12 13-8 12-5z" fill="#FEFEFE"/>
<path transform="translate(523,915)" d="m0 0h42l1 1v110l3 10 8 9 7 4 6 1h9l9-3 10-6 6-8 4-8 3-13 2-26 2-70 1-1h45l1 1v52l-3 116-3 1h-38l-2-3-3-22-3 1-7 8-10 9-17 9-7 2-9 1h-15l-11-2-15-8-10-10-8-15-3-15v-40l2-84z" fill="#FEFEFE"/>
<path transform="translate(355,881)" d="m0 0h16l17 4 12 5 11 7 11 11 10 16 6 18 2 9v24l-6 23-4 8-7 12-9 10-10 8-6 4h-2l-1-2-1-10v-12h-42l3 26v8h-7l-16-5-9-4-13-9-7-7-10-14-7-16-3-19v-16l3-21 6-15 6-10 9-10 8-8 13-8 15-5zm13 34-20 3-6 3-4 5-1 2v10l2 2 15 3 5 5 3 5 1 11 2 3 11-1 10-4 6-5 3-7 1-6v-10l-2-10-4-5-8-3-6-1z" fill="#0A0D23"/>
<path transform="translate(826,915)" d="m0 0h110l12 1 1 1v19l-9 11-10 11-8 10-13 15-9 11-10 11-9 11-12 14-9 11-4 4 87 1 1 1v35l-3 3h-155l-2-2v-21l11-12 9-11 11-12 9-11 12-13 9-11 11-13 13-15 8-10h-77l-1-1v-33l1-4z" fill="#FEFEFE"/>
<path transform="translate(1535,911)" d="m0 0h30l15 4 16 7 12 8 2 4-14 26-1 2-5-2-18-10-15-4h-13l-10 4-5 8 1 6 4 5 14 7 22 8 18 8 10 8 7 8 5 11 2 8v15l-3 10-6 12-9 10-10 7-15 6-10 2h-32l-12-3-11-4-7-3-6-4-7-4-11-8 6-9 13-20 5 1 10 7 16 8 16 4h11l10-4 5-6 1-9-3-6-14-8-15-5-9-4-10-4-12-7-8-7-6-9-4-12v-17l4-14 6-10 8-8 10-6 16-6z" fill="#FEFEFE"/>
<path transform="translate(1450,911)" d="m0 0h16l8 2 1 4-4 30-2 9-3 2-11-2h-12l-9 2-11 7-6 7-5 10-3 12-2 22-2 65-1 3-44 1-2-1v-21l3-88 1-59 20-1h22l2 2v29h2l2-5 8-11 7-7 11-7 9-4z" fill="#FEFEFE"/>
<path transform="translate(745,915)" d="m0 0h13l4 2-1 75-2 79-1 13-4 1h-35l-7-1-1-3 2-67 2-98z" fill="#FEFEFE"/>
<path transform="translate(735,831)" d="m0 0h11l9 3 8 6 5 7 2 6v14l-4 10-8 8-8 4-7 2-10-1-10-5-5-5-6-9-1-4v-13l4-9 7-8 8-5z" fill="#FEFEFE"/>
<path transform="translate(1253,945)" d="m0 0h9l12 3 8 6 6 10 4 11v5l-25 2-49 2-1-2 5-15 5-8 6-7 8-4z" fill="#0C1125"/>
<path transform="translate(1712,945)" d="m0 0 11 1 11 4 8 8 4 9 2 12-7 2-46 2h-20l1-9 6-12 9-10 10-5z" fill="#0C1125"/>
<path transform="translate(588,913)" d="m0 0h1l1 7 1 22 7 4v1l-9-1-2-2 1-17z" fill="#578678"/>
<path transform="translate(571,952)" d="m0 0 5 2-4 11h-4z" fill="#578678"/>
<path transform="translate(610,957)" d="m0 0" fill="#578678"/>
</svg>
